<svg class="img-fluid" id="outputsvg" xmlns="http://www.w3.org/2000/svg" style="transform: matrix(0.659101, 0, 0, 0.659101, 0, 0); transform-origin: 50% 50%; cursor: move; transition: transform 200ms ease-in-out 0s;" width="600" height="600" viewBox="0 0 6000 6000"><g id="l3gV7xhEQGAFfc8U2twQKoq" fill="rgb(0,0,0)" style="transform: none; transform-origin: 50% 50%;"><g style="transform: none;"><path id="pslsVIQhF" d="M1735 5975 c-335 -50 -656 -185 -933 -392 -104 -79 -279 -249 -361 -352 -279 -351 -431 -775 -431 -1201 0 -952 732 -1789 1700 -1945 52 -8 99 -15 103 -15 4 0 -17 -30 -46 -67 -298 -371 -556 -1068 -647 -1752 -20 -152 -18 -176 22 -218 28 -30 69 -37 109 -20 46 20 336 218 489 335 217 166 369 299 575 506 291 291 469 522 595 771 97 190 137 354 147 591 l6 151 28 17 28 16 93 -96 c209 -216 425 -333 788 -424 500 -127 1222 -152 1835 -65 91 12 103 17 127 45 21 23 28 41 28 71 0 39 -6 48 -87 131 -394 403 -1023 803 -1476 938 -203 61 -341 74 -490 45 -72 -14 -207 -21 -207 -11 0 2 18 36 40 75 180 317 269 723 234 1068 -26 263 -81 460 -188 678 -200 407 -516 724 -927 931 -186 93 -399 159 -609 189 -129 18 -421 18 -545 0z m545 -309 c647 -109 1158 -534 1354 -1126 64 -194 80 -292 80 -505 1 -216 -17 -334 -81 -524 -35 -107 -135 -313 -176 -364 l-22 -28 -153 46 c-84 25 -225 72 -313 105 -98 37 -176 60 -201 60 -53 0 -105 -26 -123 -61 -19 -35 -19 -146 -1 -178 12 -22 9 -31 -32 -100 -122 -208 -285 -431 -402 -553 l-68 -71 -173 6 c-122 3 -207 11 -284 27 -704 141 -1218 646 -1357 1332 -33 161 -32 445 1 598 110 514 412 915 871 1158 165 87 383 157 565 181 44 6 94 13 110 15 57 8 320 -3 405 -18z m1010 -2816 c185 -47 285 -62 455 -67 123 -4 180 -2 246 11 109 20 134 20 244 -3 348 -75 805 -328 1233 -685 68 -58 71 -61 48 -67 -14 -4 -126 -12 -248 -18 -616 -31 -1211 60 -1568 239 -212 106 -431 334 -613 637 -6 9 6 8 40 -3 26 -8 100 -28 163 -44z m-481 -378 c21 -280 -19 -512 -124 -722 -191 -382 -594 -812 -1142 -1222 -72 -54 -133 -98 -136 -98 -3 0 8 62 24 138 121 571 353 1098 583 1327 45 44 106 90 166 125 163 95 371 314 537 565 l68 104 7 -40 c4 -23 12 -102 17 -177z"></path></g></g><g id="lKd8IfubPrOvCYLD6Sx7tb" fill="rgb(0,128,0)" style="transform: none; transform-origin: 50% 50%;"><g style="transform: none;"><path id="p10vThTUP8" d="M3031 2913 c184 -324 415 -570 639 -683 277 -139 643 -215 1150 -240 215 -11 542 -3 750 18 l64 7 -69 62 c-410 366 -934 666 -1300 744 -109 23 -194 24 -298 4 -198 -38 -476 -2 -826 105 -71 22 -133 40 -136 40 -4 0 8 -26 26 -57z"></path><path id="pyPhsQiJi" d="M2708 2648 c-194 -292 -387 -498 -558 -598 -60 -35 -121 -81 -166 -125 -201 -200 -403 -626 -538 -1135 -36 -137 -88 -395 -84 -421 3 -19 15 -12 125 66 570 407 1028 886 1228 1285 79 158 116 306 130 525 7 105 -7 335 -28 469 l-12 78 -97 -144z"></path></g></g><g id="lM1NPQWlBBzQm9H8X6SHJb" fill="rgb(255,120,0)" style="transform: none; transform-origin: 50% 50%;"><g style="transform: none;"><path id="p1FVeXISMl" d="M1845 5714 c-16 -2 -66 -9 -110 -15 -182 -24 -400 -94 -565 -181 -459 -243 -760 -643 -872 -1158 -19 -91 -22 -135 -23 -325 0 -191 3 -235 23 -333 139 -686 652 -1190 1357 -1333 84 -17 158 -23 314 -27 l203 -4 68 70 c120 125 280 346 410 566 l53 89 -22 44 c-25 51 -27 93 -6 132 13 26 67 61 93 61 6 0 83 -27 171 -60 155 -58 422 -142 492 -155 33 -6 35 -5 75 62 105 172 175 350 216 554 20 99 23 143 23 334 -1 246 -14 333 -81 535 -195 590 -701 1012 -1349 1126 -78 14 -411 27 -470 18z m-1091 -1916 c86 -259 196 -437 386 -629 214 -215 383 -319 664 -406 60 -18 112 -36 115 -38 7 -8 -50 -65 -82 -82 -52 -27 -157 -41 -237 -31 -85 10 -249 62 -337 106 -183 93 -369 252 -466 398 -167 254 -238 542 -169 696 20 47 62 98 80 98 5 0 25 -51 46 -112z"></path></g></g><g id="l5f6YNDejFZfTySOhjHDrrr" fill="rgb(255,255,255)" style="transform: none; transform-origin: 50% 50%;"><g style="transform: none;"><path id="pEvB0IL5A" d="M668 3935 c-108 -74 -130 -305 -51 -545 100 -302 318 -551 616 -702 92 -46 254 -96 352 -108 96 -12 196 -2 265 27 47 19 120 92 120 119 0 25 -4 27 -175 80 -198 63 -367 158 -527 298 -236 206 -385 428 -483 721 -51 150 -54 153 -117 110z"></path></g></g></svg>